<svg width="487" height="108" viewBox="0 0 487 108" fill="none" xmlns="http://www.w3.org/2000/svg">
<g filter="url(#filter0_d_2_4)">
<path d="M6 48.2555H22.6293L31.1571 32.1856L41.5477 66.5L56.4881 17.5L69.8829 73.5L87.8671 32.1856L96.395 64.8275L107.908 32.1856L111.745 48.2555H142.019L149.268 32.1856L159.525 63.5L175.496 10L190.436 71.5L204.698 32.1856L211.947 64.8275L224.739 32.1856L229.855 48.2555H260.982L269.51 32.1856L276.987 55.5L291.412 17.5L308.413 80L321.53 32.1856L330.91 64.8275L344.555 32.1856L349.245 48.2555H379.519L386.341 32.1856L394.964 58.5L407.329 22L423.815 94L441.772 39.2162L449.021 64.8275L460.96 39.2162L466.076 48.2555H481" stroke="#E0DFE0" stroke-width="4" stroke-linecap="round"/>
</g>
<defs>
<filter id="filter0_d_2_4" x="0" y="0.343933" width="487" height="107.122" filterUnits="userSpaceOnUse" color-interpolation-filters="sRGB">
<feFlood flood-opacity="0" result="BackgroundImageFix"/>
<feColorMatrix in="SourceAlpha" type="matrix" values="0 0 0 0 0 0 0 0 0 0 0 0 0 0 0 0 0 0 127 0" result="hardAlpha"/>
<feOffset dy="2"/>
<feGaussianBlur stdDeviation="2"/>
<feComposite in2="hardAlpha" operator="out"/>
<feColorMatrix type="matrix" values="0 0 0 0 0 0 0 0 0 0 0 0 0 0 0 0 0 0 0.5 0"/>
<feBlend mode="normal" in2="BackgroundImageFix" result="effect1_dropShadow_2_4"/>
<feBlend mode="normal" in="SourceGraphic" in2="effect1_dropShadow_2_4" result="shape"/>
</filter>
</defs>
</svg>
