<svg xmlns="http://www.w3.org/2000/svg" xmlns:xlink="http://www.w3.org/1999/xlink" width="300" zoomAndPan="magnify" viewBox="0 0 224.87999 37.5" height="50" preserveAspectRatio="xMidYMid meet" version="1.0"><defs><g/></defs><g fill="#e0dfe0" fill-opacity="1"><g transform="translate(5.120916, 24.424342)"><g><path d="M 4.984375 0.1875 C 3.515625 0.1875 2.421875 -0.304688 1.703125 -1.296875 C 0.992188 -2.296875 0.640625 -3.695312 0.640625 -5.5 C 0.640625 -7.3125 0.992188 -8.710938 1.703125 -9.703125 C 2.421875 -10.703125 3.515625 -11.203125 4.984375 -11.203125 C 5.554688 -11.203125 6.0625 -11.125 6.5 -10.96875 C 6.9375 -10.820312 7.3125 -10.609375 7.625 -10.328125 C 7.9375 -10.054688 8.195312 -9.726562 8.40625 -9.34375 C 8.613281 -8.957031 8.773438 -8.519531 8.890625 -8.03125 L 6.671875 -7.5 C 6.609375 -7.757812 6.535156 -8 6.453125 -8.21875 C 6.367188 -8.4375 6.257812 -8.625 6.125 -8.78125 C 6 -8.945312 5.835938 -9.070312 5.640625 -9.15625 C 5.441406 -9.25 5.207031 -9.296875 4.9375 -9.296875 C 4.300781 -9.296875 3.847656 -9.046875 3.578125 -8.546875 C 3.304688 -8.046875 3.171875 -7.351562 3.171875 -6.46875 L 3.171875 -4.546875 C 3.171875 -3.660156 3.304688 -2.96875 3.578125 -2.46875 C 3.847656 -1.96875 4.300781 -1.71875 4.9375 -1.71875 C 5.488281 -1.71875 5.882812 -1.882812 6.125 -2.21875 C 6.375 -2.5625 6.554688 -2.992188 6.671875 -3.515625 L 8.890625 -2.984375 C 8.773438 -2.492188 8.613281 -2.054688 8.40625 -1.671875 C 8.195312 -1.285156 7.9375 -0.953125 7.625 -0.671875 C 7.3125 -0.390625 6.9375 -0.175781 6.5 -0.03125 C 6.0625 0.113281 5.554688 0.1875 4.984375 0.1875 Z M 4.984375 0.1875 "/></g></g></g><g fill="#e0dfe0" fill-opacity="1"><g transform="translate(13.960743, 24.424342)"><g><path d="M 4.734375 0.1875 C 3.265625 0.1875 2.175781 -0.3125 1.46875 -1.3125 C 0.769531 -2.3125 0.421875 -3.707031 0.421875 -5.5 C 0.421875 -7.300781 0.769531 -8.703125 1.46875 -9.703125 C 2.175781 -10.703125 3.265625 -11.203125 4.734375 -11.203125 C 6.203125 -11.203125 7.285156 -10.703125 7.984375 -9.703125 C 8.691406 -8.703125 9.046875 -7.300781 9.046875 -5.5 C 9.046875 -3.707031 8.691406 -2.3125 7.984375 -1.3125 C 7.285156 -0.3125 6.203125 0.1875 4.734375 0.1875 Z M 4.734375 -1.71875 C 5.410156 -1.71875 5.875 -1.96875 6.125 -2.46875 C 6.382812 -2.96875 6.515625 -3.664062 6.515625 -4.5625 L 6.515625 -6.46875 C 6.515625 -7.351562 6.382812 -8.046875 6.125 -8.546875 C 5.875 -9.046875 5.410156 -9.296875 4.734375 -9.296875 C 4.054688 -9.296875 3.585938 -9.046875 3.328125 -8.546875 C 3.078125 -8.046875 2.953125 -7.351562 2.953125 -6.46875 L 2.953125 -4.546875 C 2.953125 -3.660156 3.078125 -2.96875 3.328125 -2.46875 C 3.585938 -1.96875 4.054688 -1.71875 4.734375 -1.71875 Z M 4.734375 -1.71875 "/></g></g></g><g fill="#e0dfe0" fill-opacity="1"><g transform="translate(22.80057, 24.424342)"><g><path d="M 3.15625 -7.328125 L 2.984375 -7.328125 L 2.984375 0 L 0.96875 0 L 0.96875 -11.015625 L 3.796875 -11.015625 L 6.3125 -3.6875 L 6.484375 -3.6875 L 6.484375 -11.015625 L 8.5 -11.015625 L 8.5 0 L 5.671875 0 Z M 3.15625 -7.328125 "/></g></g></g><g fill="#e0dfe0" fill-opacity="1"><g transform="translate(31.640398, 24.424342)"><g><path d="M 5.921875 -9.078125 L 5.921875 0 L 3.546875 0 L 3.546875 -9.078125 L 0.375 -9.078125 L 0.375 -11.015625 L 9.09375 -11.015625 L 9.09375 -9.078125 Z M 5.921875 -9.078125 "/></g></g></g><g fill="#e0dfe0" fill-opacity="1"><g transform="translate(40.480225, 24.424342)"><g><path d="M 6.859375 0 L 6.171875 -2.65625 L 3.15625 -2.65625 L 2.484375 0 L 0.078125 0 L 3.0625 -11.015625 L 6.40625 -11.015625 L 9.390625 0 Z M 4.734375 -8.734375 L 4.609375 -8.734375 L 3.53125 -4.5625 L 5.8125 -4.5625 Z M 4.734375 -8.734375 "/></g></g></g><g fill="#e0dfe0" fill-opacity="1"><g transform="translate(49.320051, 24.424342)"><g><path d="M 5.921875 -9.078125 L 5.921875 0 L 3.546875 0 L 3.546875 -9.078125 L 0.375 -9.078125 L 0.375 -11.015625 L 9.09375 -11.015625 L 9.09375 -9.078125 Z M 5.921875 -9.078125 "/></g></g></g><g fill="#e0dfe0" fill-opacity="1"><g transform="translate(58.15988, 24.424342)"><g><path d="M 4.734375 0.1875 C 3.265625 0.1875 2.175781 -0.3125 1.46875 -1.3125 C 0.769531 -2.3125 0.421875 -3.707031 0.421875 -5.5 C 0.421875 -7.300781 0.769531 -8.703125 1.46875 -9.703125 C 2.175781 -10.703125 3.265625 -11.203125 4.734375 -11.203125 C 6.203125 -11.203125 7.285156 -10.703125 7.984375 -9.703125 C 8.691406 -8.703125 9.046875 -7.300781 9.046875 -5.5 C 9.046875 -3.707031 8.691406 -2.3125 7.984375 -1.3125 C 7.285156 -0.3125 6.203125 0.1875 4.734375 0.1875 Z M 4.734375 -1.71875 C 5.410156 -1.71875 5.875 -1.96875 6.125 -2.46875 C 6.382812 -2.96875 6.515625 -3.664062 6.515625 -4.5625 L 6.515625 -6.46875 C 6.515625 -7.351562 6.382812 -8.046875 6.125 -8.546875 C 5.875 -9.046875 5.410156 -9.296875 4.734375 -9.296875 C 4.054688 -9.296875 3.585938 -9.046875 3.328125 -8.546875 C 3.078125 -8.046875 2.953125 -7.351562 2.953125 -6.46875 L 2.953125 -4.546875 C 2.953125 -3.660156 3.078125 -2.96875 3.328125 -2.46875 C 3.585938 -1.96875 4.054688 -1.71875 4.734375 -1.71875 Z M 4.734375 -1.71875 "/></g></g></g></svg>