<svg xmlns="http://www.w3.org/2000/svg" xmlns:xlink="http://www.w3.org/1999/xlink" width="300" zoomAndPan="magnify" viewBox="0 0 224.87999 37.5" height="50" preserveAspectRatio="xMidYMid meet" version="1.0"><defs><g/></defs><g fill="#e0dfe0" fill-opacity="1"><g transform="translate(5.120916, 24.424342)"><g><path d="M 4.984375 0.1875 C 3.515625 0.1875 2.421875 -0.304688 1.703125 -1.296875 C 0.992188 -2.296875 0.640625 -3.695312 0.640625 -5.5 C 0.640625 -7.3125 0.992188 -8.710938 1.703125 -9.703125 C 2.421875 -10.703125 3.515625 -11.203125 4.984375 -11.203125 C 5.554688 -11.203125 6.0625 -11.125 6.5 -10.96875 C 6.9375 -10.820312 7.3125 -10.609375 7.625 -10.328125 C 7.9375 -10.054688 8.195312 -9.726562 8.40625 -9.34375 C 8.613281 -8.957031 8.773438 -8.519531 8.890625 -8.03125 L 6.671875 -7.5 C 6.609375 -7.757812 6.535156 -8 6.453125 -8.21875 C 6.367188 -8.4375 6.257812 -8.625 6.125 -8.78125 C 6 -8.945312 5.835938 -9.070312 5.640625 -9.15625 C 5.441406 -9.25 5.207031 -9.296875 4.9375 -9.296875 C 4.300781 -9.296875 3.847656 -9.046875 3.578125 -8.546875 C 3.304688 -8.046875 3.171875 -7.351562 3.171875 -6.46875 L 3.171875 -4.546875 C 3.171875 -3.660156 3.304688 -2.96875 3.578125 -2.46875 C 3.847656 -1.96875 4.300781 -1.71875 4.9375 -1.71875 C 5.488281 -1.71875 5.882812 -1.882812 6.125 -2.21875 C 6.375 -2.5625 6.554688 -2.992188 6.671875 -3.515625 L 8.890625 -2.984375 C 8.773438 -2.492188 8.613281 -2.054688 8.40625 -1.671875 C 8.195312 -1.285156 7.9375 -0.953125 7.625 -0.671875 C 7.3125 -0.390625 6.9375 -0.175781 6.5 -0.03125 C 6.0625 0.113281 5.554688 0.1875 4.984375 0.1875 Z M 4.984375 0.1875 "/></g></g></g><g fill="#e0dfe0" fill-opacity="1"><g transform="translate(13.960743, 24.424342)"><g><path d="M 4.734375 0.1875 C 3.265625 0.1875 2.175781 -0.3125 1.46875 -1.3125 C 0.769531 -2.3125 0.421875 -3.707031 0.421875 -5.5 C 0.421875 -7.300781 0.769531 -8.703125 1.46875 -9.703125 C 2.175781 -10.703125 3.265625 -11.203125 4.734375 -11.203125 C 6.203125 -11.203125 7.285156 -10.703125 7.984375 -9.703125 C 8.691406 -8.703125 9.046875 -7.300781 9.046875 -5.5 C 9.046875 -3.707031 8.691406 -2.3125 7.984375 -1.3125 C 7.285156 -0.3125 6.203125 0.1875 4.734375 0.1875 Z M 4.734375 -1.71875 C 5.410156 -1.71875 5.875 -1.96875 6.125 -2.46875 C 6.382812 -2.96875 6.515625 -3.664062 6.515625 -4.5625 L 6.515625 -6.46875 C 6.515625 -7.351562 6.382812 -8.046875 6.125 -8.546875 C 5.875 -9.046875 5.410156 -9.296875 4.734375 -9.296875 C 4.054688 -9.296875 3.585938 -9.046875 3.328125 -8.546875 C 3.078125 -8.046875 2.953125 -7.351562 2.953125 -6.46875 L 2.953125 -4.546875 C 2.953125 -3.660156 3.078125 -2.96875 3.328125 -2.46875 C 3.585938 -1.96875 4.054688 -1.71875 4.734375 -1.71875 Z M 4.734375 -1.71875 "/></g></g></g><g fill="#e0dfe0" fill-opacity="1"><g transform="translate(22.80057, 24.424342)"><g><path d="M 3.53125 0 L 1.203125 0 L 1.203125 -11.015625 L 5.453125 -11.015625 C 5.992188 -11.015625 6.472656 -10.929688 6.890625 -10.765625 C 7.316406 -10.609375 7.671875 -10.375 7.953125 -10.0625 C 8.242188 -9.757812 8.460938 -9.390625 8.609375 -8.953125 C 8.765625 -8.523438 8.84375 -8.046875 8.84375 -7.515625 C 8.84375 -6.734375 8.671875 -6.0625 8.328125 -5.5 C 7.992188 -4.945312 7.515625 -4.582031 6.890625 -4.40625 L 9.0625 0 L 6.46875 0 L 4.625 -4.09375 L 3.53125 -4.09375 Z M 4.890625 -5.921875 C 5.453125 -5.921875 5.835938 -6.023438 6.046875 -6.234375 C 6.265625 -6.441406 6.375 -6.789062 6.375 -7.28125 L 6.375 -7.75 C 6.375 -8.226562 6.265625 -8.570312 6.046875 -8.78125 C 5.835938 -9 5.453125 -9.109375 4.890625 -9.109375 L 3.53125 -9.109375 L 3.53125 -5.921875 Z M 4.890625 -5.921875 "/></g></g></g><g fill="#e0dfe0" fill-opacity="1"><g transform="translate(31.640398, 24.424342)"><g><path d="M 1.265625 0 L 1.265625 -11.015625 L 8.296875 -11.015625 L 8.296875 -9.078125 L 3.625 -9.078125 L 3.625 -6.546875 L 8.140625 -6.546875 L 8.140625 -4.609375 L 3.625 -4.609375 L 3.625 -1.9375 L 8.296875 -1.9375 L 8.296875 0 Z M 1.265625 0 "/></g></g></g><g fill="#e0dfe0" fill-opacity="1"><g transform="translate(40.480225, 24.424342)"><g/></g></g><g fill="#e0dfe0" fill-opacity="1"><g transform="translate(49.309082, 24.424342)"><g><path d="M 5.09375 0.1875 C 3.75 0.1875 2.75 -0.300781 2.09375 -1.28125 C 1.4375 -2.257812 1.109375 -3.664062 1.109375 -5.5 C 1.109375 -7.34375 1.4375 -8.753906 2.09375 -9.734375 C 2.75 -10.710938 3.75 -11.203125 5.09375 -11.203125 C 5.601562 -11.203125 6.039062 -11.132812 6.40625 -11 C 6.769531 -10.863281 7.082031 -10.675781 7.34375 -10.4375 C 7.613281 -10.207031 7.835938 -9.945312 8.015625 -9.65625 C 8.191406 -9.375 8.347656 -9.085938 8.484375 -8.796875 L 7.359375 -8.265625 C 7.265625 -8.503906 7.148438 -8.734375 7.015625 -8.953125 C 6.890625 -9.171875 6.738281 -9.359375 6.5625 -9.515625 C 6.394531 -9.679688 6.191406 -9.8125 5.953125 -9.90625 C 5.722656 -10 5.4375 -10.046875 5.09375 -10.046875 C 4.21875 -10.046875 3.566406 -9.710938 3.140625 -9.046875 C 2.722656 -8.390625 2.515625 -7.507812 2.515625 -6.40625 L 2.515625 -4.609375 C 2.515625 -3.503906 2.722656 -2.617188 3.140625 -1.953125 C 3.566406 -1.296875 4.21875 -0.96875 5.09375 -0.96875 C 5.4375 -0.96875 5.722656 -1.015625 5.953125 -1.109375 C 6.191406 -1.203125 6.394531 -1.328125 6.5625 -1.484375 C 6.738281 -1.648438 6.890625 -1.84375 7.015625 -2.0625 C 7.148438 -2.28125 7.265625 -2.507812 7.359375 -2.75 L 8.484375 -2.21875 C 8.347656 -1.914062 8.191406 -1.625 8.015625 -1.34375 C 7.835938 -1.0625 7.613281 -0.800781 7.34375 -0.5625 C 7.082031 -0.332031 6.769531 -0.148438 6.40625 -0.015625 C 6.039062 0.117188 5.601562 0.1875 5.09375 0.1875 Z M 5.09375 0.1875 "/></g></g></g><g fill="#e0dfe0" fill-opacity="1"><g transform="translate(58.148909, 24.424342)"><g><path d="M 1.890625 0 L 1.890625 -11.015625 L 3.21875 -11.015625 L 3.21875 -1.15625 L 8.4375 -1.15625 L 8.4375 0 Z M 1.890625 0 "/></g></g></g><g fill="#e0dfe0" fill-opacity="1"><g transform="translate(66.988737, 24.424342)"><g><path d="M 1.328125 0 L 1.328125 -1.0625 L 4.078125 -1.0625 L 4.078125 -9.953125 L 1.328125 -9.953125 L 1.328125 -11.015625 L 8.140625 -11.015625 L 8.140625 -9.953125 L 5.390625 -9.953125 L 5.390625 -1.0625 L 8.140625 -1.0625 L 8.140625 0 Z M 4.84375 -11.921875 L 4.03125 -12.296875 L 5.359375 -14.96875 L 6.515625 -14.421875 Z M 4.84375 -11.921875 "/></g></g></g><g fill="#e0dfe0" fill-opacity="1"><g transform="translate(75.828564, 24.424342)"><g><path d="M 2.578125 -9.328125 L 2.46875 -9.328125 L 2.46875 0 L 1.265625 0 L 1.265625 -11.015625 L 3.140625 -11.015625 L 6.890625 -1.78125 L 7 -1.78125 L 7 -11.015625 L 8.203125 -11.015625 L 8.203125 0 L 6.328125 0 Z M 2.578125 -9.328125 "/></g></g></g><g fill="#e0dfe0" fill-opacity="1"><g transform="translate(84.668391, 24.424342)"><g><path d="M 1.328125 0 L 1.328125 -1.0625 L 4.078125 -1.0625 L 4.078125 -9.953125 L 1.328125 -9.953125 L 1.328125 -11.015625 L 8.140625 -11.015625 L 8.140625 -9.953125 L 5.390625 -9.953125 L 5.390625 -1.0625 L 8.140625 -1.0625 L 8.140625 0 Z M 1.328125 0 "/></g></g></g><g fill="#e0dfe0" fill-opacity="1"><g transform="translate(93.508217, 24.424342)"><g><path d="M 5.09375 0.1875 C 3.75 0.1875 2.75 -0.300781 2.09375 -1.28125 C 1.4375 -2.257812 1.109375 -3.664062 1.109375 -5.5 C 1.109375 -7.34375 1.4375 -8.753906 2.09375 -9.734375 C 2.75 -10.710938 3.75 -11.203125 5.09375 -11.203125 C 5.601562 -11.203125 6.039062 -11.132812 6.40625 -11 C 6.769531 -10.863281 7.082031 -10.675781 7.34375 -10.4375 C 7.613281 -10.207031 7.835938 -9.945312 8.015625 -9.65625 C 8.191406 -9.375 8.347656 -9.085938 8.484375 -8.796875 L 7.359375 -8.265625 C 7.265625 -8.503906 7.148438 -8.734375 7.015625 -8.953125 C 6.890625 -9.171875 6.738281 -9.359375 6.5625 -9.515625 C 6.394531 -9.679688 6.191406 -9.8125 5.953125 -9.90625 C 5.722656 -10 5.4375 -10.046875 5.09375 -10.046875 C 4.21875 -10.046875 3.566406 -9.710938 3.140625 -9.046875 C 2.722656 -8.390625 2.515625 -7.507812 2.515625 -6.40625 L 2.515625 -4.609375 C 2.515625 -3.503906 2.722656 -2.617188 3.140625 -1.953125 C 3.566406 -1.296875 4.21875 -0.96875 5.09375 -0.96875 C 5.4375 -0.96875 5.722656 -1.015625 5.953125 -1.109375 C 6.191406 -1.203125 6.394531 -1.328125 6.5625 -1.484375 C 6.738281 -1.648438 6.890625 -1.84375 7.015625 -2.0625 C 7.148438 -2.28125 7.265625 -2.507812 7.359375 -2.75 L 8.484375 -2.21875 C 8.347656 -1.914062 8.191406 -1.625 8.015625 -1.34375 C 7.835938 -1.0625 7.613281 -0.800781 7.34375 -0.5625 C 7.082031 -0.332031 6.769531 -0.148438 6.40625 -0.015625 C 6.039062 0.117188 5.601562 0.1875 5.09375 0.1875 Z M 5.09375 0.1875 "/></g></g></g><g fill="#e0dfe0" fill-opacity="1"><g transform="translate(102.348047, 24.424342)"><g><path d="M 7.59375 0 L 6.65625 -3.140625 L 2.796875 -3.140625 L 1.859375 0 L 0.484375 0 L 3.859375 -11.015625 L 5.625 -11.015625 L 9 0 Z M 4.796875 -9.609375 L 4.65625 -9.609375 L 3.109375 -4.296875 L 6.34375 -4.296875 Z M 4.796875 -9.609375 "/></g></g></g></svg>