<svg xmlns="http://www.w3.org/2000/svg" xmlns:xlink="http://www.w3.org/1999/xlink" width="300" zoomAndPan="magnify" viewBox="0 0 224.87999 37.5" height="50" preserveAspectRatio="xMidYMid meet" version="1.0"><defs><g/></defs><g fill="#e0dfe0" fill-opacity="1"><g transform="translate(5.120916, 24.424342)"><g><path d="M 6.125 -4.609375 L 3.34375 -4.609375 L 3.34375 0 L 0.96875 0 L 0.96875 -11.015625 L 3.34375 -11.015625 L 3.34375 -6.546875 L 6.125 -6.546875 L 6.125 -11.015625 L 8.5 -11.015625 L 8.5 0 L 6.125 0 Z M 6.125 -4.609375 "/></g></g></g><g fill="#e0dfe0" fill-opacity="1"><g transform="translate(13.960737, 24.424342)"><g><path d="M 4.734375 0.1875 C 3.265625 0.1875 2.175781 -0.3125 1.46875 -1.3125 C 0.769531 -2.3125 0.421875 -3.707031 0.421875 -5.5 C 0.421875 -7.300781 0.769531 -8.703125 1.46875 -9.703125 C 2.175781 -10.703125 3.265625 -11.203125 4.734375 -11.203125 C 6.203125 -11.203125 7.285156 -10.703125 7.984375 -9.703125 C 8.691406 -8.703125 9.046875 -7.300781 9.046875 -5.5 C 9.046875 -3.707031 8.691406 -2.3125 7.984375 -1.3125 C 7.285156 -0.3125 6.203125 0.1875 4.734375 0.1875 Z M 4.734375 -1.71875 C 5.410156 -1.71875 5.875 -1.96875 6.125 -2.46875 C 6.382812 -2.96875 6.515625 -3.664062 6.515625 -4.5625 L 6.515625 -6.46875 C 6.515625 -7.351562 6.382812 -8.046875 6.125 -8.546875 C 5.875 -9.046875 5.410156 -9.296875 4.734375 -9.296875 C 4.054688 -9.296875 3.585938 -9.046875 3.328125 -8.546875 C 3.078125 -8.046875 2.953125 -7.351562 2.953125 -6.46875 L 2.953125 -4.546875 C 2.953125 -3.660156 3.078125 -2.96875 3.328125 -2.46875 C 3.585938 -1.96875 4.054688 -1.71875 4.734375 -1.71875 Z M 4.734375 -1.71875 "/></g></g></g><g fill="#e0dfe0" fill-opacity="1"><g transform="translate(22.800557, 24.424342)"><g><path d="M 3.53125 0 L 1.203125 0 L 1.203125 -11.015625 L 5.453125 -11.015625 C 5.992188 -11.015625 6.472656 -10.929688 6.890625 -10.765625 C 7.316406 -10.609375 7.671875 -10.375 7.953125 -10.0625 C 8.242188 -9.757812 8.460938 -9.390625 8.609375 -8.953125 C 8.765625 -8.523438 8.84375 -8.046875 8.84375 -7.515625 C 8.84375 -6.734375 8.671875 -6.0625 8.328125 -5.5 C 7.992188 -4.945312 7.515625 -4.582031 6.890625 -4.40625 L 9.0625 0 L 6.46875 0 L 4.625 -4.09375 L 3.53125 -4.09375 Z M 4.890625 -5.921875 C 5.453125 -5.921875 5.835938 -6.023438 6.046875 -6.234375 C 6.265625 -6.441406 6.375 -6.789062 6.375 -7.28125 L 6.375 -7.75 C 6.375 -8.226562 6.265625 -8.570312 6.046875 -8.78125 C 5.835938 -9 5.453125 -9.109375 4.890625 -9.109375 L 3.53125 -9.109375 L 3.53125 -5.921875 Z M 4.890625 -5.921875 "/></g></g></g><g fill="#e0dfe0" fill-opacity="1"><g transform="translate(31.640378, 24.424342)"><g><path d="M 6.859375 0 L 6.171875 -2.65625 L 3.15625 -2.65625 L 2.484375 0 L 0.078125 0 L 3.0625 -11.015625 L 6.40625 -11.015625 L 9.390625 0 Z M 4.734375 -8.734375 L 4.609375 -8.734375 L 3.53125 -4.5625 L 5.8125 -4.5625 Z M 4.984375 -11.671875 L 3.59375 -12.359375 L 5.15625 -15.421875 L 7.09375 -14.453125 Z M 4.984375 -11.671875 "/></g></g></g><g fill="#e0dfe0" fill-opacity="1"><g transform="translate(40.480199, 24.424342)"><g><path d="M 3.53125 0 L 1.203125 0 L 1.203125 -11.015625 L 5.453125 -11.015625 C 5.992188 -11.015625 6.472656 -10.929688 6.890625 -10.765625 C 7.316406 -10.609375 7.671875 -10.375 7.953125 -10.0625 C 8.242188 -9.757812 8.460938 -9.390625 8.609375 -8.953125 C 8.765625 -8.523438 8.84375 -8.046875 8.84375 -7.515625 C 8.84375 -6.734375 8.671875 -6.0625 8.328125 -5.5 C 7.992188 -4.945312 7.515625 -4.582031 6.890625 -4.40625 L 9.0625 0 L 6.46875 0 L 4.625 -4.09375 L 3.53125 -4.09375 Z M 4.890625 -5.921875 C 5.453125 -5.921875 5.835938 -6.023438 6.046875 -6.234375 C 6.265625 -6.441406 6.375 -6.789062 6.375 -7.28125 L 6.375 -7.75 C 6.375 -8.226562 6.265625 -8.570312 6.046875 -8.78125 C 5.835938 -9 5.453125 -9.109375 4.890625 -9.109375 L 3.53125 -9.109375 L 3.53125 -5.921875 Z M 4.890625 -5.921875 "/></g></g></g><g fill="#e0dfe0" fill-opacity="1"><g transform="translate(49.32002, 24.424342)"><g><path d="M 1.1875 0 L 1.1875 -1.75 L 3.546875 -1.75 L 3.546875 -9.265625 L 1.1875 -9.265625 L 1.1875 -11.015625 L 8.28125 -11.015625 L 8.28125 -9.265625 L 5.921875 -9.265625 L 5.921875 -1.75 L 8.28125 -1.75 L 8.28125 0 Z M 1.1875 0 "/></g></g></g><g fill="#e0dfe0" fill-opacity="1"><g transform="translate(58.159841, 24.424342)"><g><path d="M 4.734375 0.1875 C 3.265625 0.1875 2.175781 -0.3125 1.46875 -1.3125 C 0.769531 -2.3125 0.421875 -3.707031 0.421875 -5.5 C 0.421875 -7.300781 0.769531 -8.703125 1.46875 -9.703125 C 2.175781 -10.703125 3.265625 -11.203125 4.734375 -11.203125 C 6.203125 -11.203125 7.285156 -10.703125 7.984375 -9.703125 C 8.691406 -8.703125 9.046875 -7.300781 9.046875 -5.5 C 9.046875 -3.707031 8.691406 -2.3125 7.984375 -1.3125 C 7.285156 -0.3125 6.203125 0.1875 4.734375 0.1875 Z M 4.734375 -1.71875 C 5.410156 -1.71875 5.875 -1.96875 6.125 -2.46875 C 6.382812 -2.96875 6.515625 -3.664062 6.515625 -4.5625 L 6.515625 -6.46875 C 6.515625 -7.351562 6.382812 -8.046875 6.125 -8.546875 C 5.875 -9.046875 5.410156 -9.296875 4.734375 -9.296875 C 4.054688 -9.296875 3.585938 -9.046875 3.328125 -8.546875 C 3.078125 -8.046875 2.953125 -7.351562 2.953125 -6.46875 L 2.953125 -4.546875 C 2.953125 -3.660156 3.078125 -2.96875 3.328125 -2.46875 C 3.585938 -1.96875 4.054688 -1.71875 4.734375 -1.71875 Z M 4.734375 -1.71875 "/></g></g></g><g fill="#e0dfe0" fill-opacity="1"><g transform="translate(66.999661, 24.424342)"><g><path d="M 4.5625 0.1875 C 3.632812 0.1875 2.828125 0.0351562 2.140625 -0.265625 C 1.460938 -0.566406 0.910156 -0.984375 0.484375 -1.515625 L 1.859375 -3.03125 C 2.265625 -2.582031 2.703125 -2.253906 3.171875 -2.046875 C 3.648438 -1.835938 4.140625 -1.734375 4.640625 -1.734375 C 5.203125 -1.734375 5.628906 -1.859375 5.921875 -2.109375 C 6.222656 -2.367188 6.375 -2.734375 6.375 -3.203125 C 6.375 -3.585938 6.257812 -3.878906 6.03125 -4.078125 C 5.8125 -4.285156 5.429688 -4.429688 4.890625 -4.515625 L 3.734375 -4.703125 C 2.742188 -4.867188 2.03125 -5.234375 1.59375 -5.796875 C 1.15625 -6.359375 0.9375 -7.046875 0.9375 -7.859375 C 0.9375 -8.921875 1.28125 -9.742188 1.96875 -10.328125 C 2.664062 -10.910156 3.640625 -11.203125 4.890625 -11.203125 C 5.742188 -11.203125 6.484375 -11.070312 7.109375 -10.8125 C 7.742188 -10.550781 8.253906 -10.191406 8.640625 -9.734375 L 7.3125 -8.234375 C 7.007812 -8.566406 6.660156 -8.820312 6.265625 -9 C 5.867188 -9.1875 5.414062 -9.28125 4.90625 -9.28125 C 3.84375 -9.28125 3.3125 -8.84375 3.3125 -7.96875 C 3.3125 -7.59375 3.429688 -7.304688 3.671875 -7.109375 C 3.910156 -6.921875 4.296875 -6.78125 4.828125 -6.6875 L 5.984375 -6.484375 C 6.878906 -6.328125 7.566406 -5.988281 8.046875 -5.46875 C 8.535156 -4.957031 8.78125 -4.265625 8.78125 -3.390625 C 8.78125 -2.878906 8.6875 -2.40625 8.5 -1.96875 C 8.320312 -1.53125 8.054688 -1.148438 7.703125 -0.828125 C 7.347656 -0.503906 6.910156 -0.253906 6.390625 -0.078125 C 5.867188 0.0976562 5.257812 0.1875 4.5625 0.1875 Z M 4.5625 0.1875 "/></g></g></g><g fill="#e0dfe0" fill-opacity="1"><g transform="translate(75.839482, 24.424342)"><g/></g></g><g fill="#e0dfe0" fill-opacity="1"><g transform="translate(84.673493, 24.424342)"><g><path d="M 1.5 -11.015625 L 4.578125 -11.015625 C 5.921875 -11.015625 6.921875 -10.550781 7.578125 -9.625 C 8.242188 -8.695312 8.578125 -7.320312 8.578125 -5.5 C 8.578125 -3.6875 8.242188 -2.316406 7.578125 -1.390625 C 6.921875 -0.460938 5.921875 0 4.578125 0 L 1.5 0 Z M 4.515625 -1.15625 C 5.398438 -1.15625 6.066406 -1.457031 6.515625 -2.0625 C 6.960938 -2.675781 7.1875 -3.539062 7.1875 -4.65625 L 7.1875 -6.359375 C 7.1875 -7.472656 6.960938 -8.332031 6.515625 -8.9375 C 6.066406 -9.550781 5.398438 -9.859375 4.515625 -9.859375 L 2.828125 -9.859375 L 2.828125 -1.15625 Z M 4.515625 -1.15625 "/></g></g></g><g fill="#e0dfe0" fill-opacity="1"><g transform="translate(93.513314, 24.424342)"><g><path d="M 1.421875 0 L 1.421875 -11.015625 L 8.203125 -11.015625 L 8.203125 -9.859375 L 2.75 -9.859375 L 2.75 -6.15625 L 8.015625 -6.15625 L 8.015625 -5 L 2.75 -5 L 2.75 -1.15625 L 8.203125 -1.15625 L 8.203125 0 Z M 1.421875 0 "/></g></g></g><g fill="#e0dfe0" fill-opacity="1"><g transform="translate(102.353134, 24.424342)"><g/></g></g><g fill="#e0dfe0" fill-opacity="1"><g transform="translate(111.192955, 24.424342)"><g><path d="M 7.59375 0 L 6.65625 -3.140625 L 2.796875 -3.140625 L 1.859375 0 L 0.484375 0 L 3.859375 -11.015625 L 5.625 -11.015625 L 9 0 Z M 4.796875 -9.609375 L 4.65625 -9.609375 L 3.109375 -4.296875 L 6.34375 -4.296875 Z M 4.796875 -9.609375 "/></g></g></g><g fill="#e0dfe0" fill-opacity="1"><g transform="translate(120.032776, 24.424342)"><g><path d="M 5.390625 -9.859375 L 5.390625 0 L 4.078125 0 L 4.078125 -9.859375 L 0.390625 -9.859375 L 0.390625 -11.015625 L 9.078125 -11.015625 L 9.078125 -9.859375 Z M 5.390625 -9.859375 "/></g></g></g><g fill="#e0dfe0" fill-opacity="1"><g transform="translate(128.872597, 24.424342)"><g><path d="M 1.421875 0 L 1.421875 -11.015625 L 8.203125 -11.015625 L 8.203125 -9.859375 L 2.75 -9.859375 L 2.75 -6.15625 L 8.015625 -6.15625 L 8.015625 -5 L 2.75 -5 L 2.75 -1.15625 L 8.203125 -1.15625 L 8.203125 0 Z M 1.421875 0 "/></g></g></g><g fill="#e0dfe0" fill-opacity="1"><g transform="translate(137.712418, 24.424342)"><g><path d="M 2.578125 -9.328125 L 2.46875 -9.328125 L 2.46875 0 L 1.265625 0 L 1.265625 -11.015625 L 3.140625 -11.015625 L 6.890625 -1.78125 L 7 -1.78125 L 7 -11.015625 L 8.203125 -11.015625 L 8.203125 0 L 6.328125 0 Z M 2.578125 -9.328125 "/></g></g></g><g fill="#e0dfe0" fill-opacity="1"><g transform="translate(146.552238, 24.424342)"><g><path d="M 1.5 -11.015625 L 4.578125 -11.015625 C 5.921875 -11.015625 6.921875 -10.550781 7.578125 -9.625 C 8.242188 -8.695312 8.578125 -7.320312 8.578125 -5.5 C 8.578125 -3.6875 8.242188 -2.316406 7.578125 -1.390625 C 6.921875 -0.460938 5.921875 0 4.578125 0 L 1.5 0 Z M 4.515625 -1.15625 C 5.398438 -1.15625 6.066406 -1.457031 6.515625 -2.0625 C 6.960938 -2.675781 7.1875 -3.539062 7.1875 -4.65625 L 7.1875 -6.359375 C 7.1875 -7.472656 6.960938 -8.332031 6.515625 -8.9375 C 6.066406 -9.550781 5.398438 -9.859375 4.515625 -9.859375 L 2.828125 -9.859375 L 2.828125 -1.15625 Z M 4.515625 -1.15625 "/></g></g></g><g fill="#e0dfe0" fill-opacity="1"><g transform="translate(155.392059, 24.424342)"><g><path d="M 1.328125 0 L 1.328125 -1.0625 L 4.078125 -1.0625 L 4.078125 -9.953125 L 1.328125 -9.953125 L 1.328125 -11.015625 L 8.140625 -11.015625 L 8.140625 -9.953125 L 5.390625 -9.953125 L 5.390625 -1.0625 L 8.140625 -1.0625 L 8.140625 0 Z M 1.328125 0 "/></g></g></g><g fill="#e0dfe0" fill-opacity="1"><g transform="translate(164.23188, 24.424342)"><g><path d="M 7.1875 -5.515625 L 7.1875 -9.015625 L 7.046875 -9.015625 L 4.734375 -3.34375 L 2.421875 -9.015625 L 2.28125 -9.015625 L 2.28125 0 L 1.078125 0 L 1.078125 -11.015625 L 2.78125 -11.015625 L 4.71875 -6.15625 L 4.8125 -6.15625 L 6.75 -11.015625 L 8.390625 -11.015625 L 8.390625 0 L 7.1875 0 Z M 7.1875 -5.515625 "/></g></g></g><g fill="#e0dfe0" fill-opacity="1"><g transform="translate(173.071701, 24.424342)"><g><path d="M 1.421875 0 L 1.421875 -11.015625 L 8.203125 -11.015625 L 8.203125 -9.859375 L 2.75 -9.859375 L 2.75 -6.15625 L 8.015625 -6.15625 L 8.015625 -5 L 2.75 -5 L 2.75 -1.15625 L 8.203125 -1.15625 L 8.203125 0 Z M 1.421875 0 "/></g></g></g><g fill="#e0dfe0" fill-opacity="1"><g transform="translate(181.911527, 24.424342)"><g><path d="M 2.578125 -9.328125 L 2.46875 -9.328125 L 2.46875 0 L 1.265625 0 L 1.265625 -11.015625 L 3.140625 -11.015625 L 6.890625 -1.78125 L 7 -1.78125 L 7 -11.015625 L 8.203125 -11.015625 L 8.203125 0 L 6.328125 0 Z M 2.578125 -9.328125 "/></g></g></g><g fill="#e0dfe0" fill-opacity="1"><g transform="translate(190.751342, 24.424342)"><g><path d="M 5.390625 -9.859375 L 5.390625 0 L 4.078125 0 L 4.078125 -9.859375 L 0.390625 -9.859375 L 0.390625 -11.015625 L 9.078125 -11.015625 L 9.078125 -9.859375 Z M 5.390625 -9.859375 "/></g></g></g><g fill="#e0dfe0" fill-opacity="1"><g transform="translate(199.591158, 24.424342)"><g><path d="M 4.734375 0.1875 C 4.054688 0.1875 3.472656 0.0625 2.984375 -0.1875 C 2.503906 -0.445312 2.109375 -0.816406 1.796875 -1.296875 C 1.484375 -1.785156 1.253906 -2.382812 1.109375 -3.09375 C 0.960938 -3.800781 0.890625 -4.601562 0.890625 -5.5 C 0.890625 -6.394531 0.960938 -7.195312 1.109375 -7.90625 C 1.253906 -8.625 1.484375 -9.222656 1.796875 -9.703125 C 2.109375 -10.191406 2.503906 -10.5625 2.984375 -10.8125 C 3.472656 -11.070312 4.054688 -11.203125 4.734375 -11.203125 C 5.410156 -11.203125 5.988281 -11.070312 6.46875 -10.8125 C 6.957031 -10.5625 7.359375 -10.191406 7.671875 -9.703125 C 7.984375 -9.222656 8.210938 -8.625 8.359375 -7.90625 C 8.503906 -7.195312 8.578125 -6.394531 8.578125 -5.5 C 8.578125 -4.601562 8.503906 -3.800781 8.359375 -3.09375 C 8.210938 -2.382812 7.984375 -1.785156 7.671875 -1.296875 C 7.359375 -0.816406 6.957031 -0.445312 6.46875 -0.1875 C 5.988281 0.0625 5.410156 0.1875 4.734375 0.1875 Z M 4.734375 -0.96875 C 5.171875 -0.96875 5.539062 -1.050781 5.84375 -1.21875 C 6.15625 -1.394531 6.410156 -1.640625 6.609375 -1.953125 C 6.804688 -2.273438 6.953125 -2.65625 7.046875 -3.09375 C 7.140625 -3.539062 7.1875 -4.046875 7.1875 -4.609375 L 7.1875 -6.40625 C 7.1875 -6.957031 7.140625 -7.457031 7.046875 -7.90625 C 6.953125 -8.351562 6.804688 -8.734375 6.609375 -9.046875 C 6.410156 -9.367188 6.15625 -9.613281 5.84375 -9.78125 C 5.539062 -9.957031 5.171875 -10.046875 4.734375 -10.046875 C 4.296875 -10.046875 3.921875 -9.957031 3.609375 -9.78125 C 3.304688 -9.613281 3.054688 -9.367188 2.859375 -9.046875 C 2.660156 -8.734375 2.515625 -8.351562 2.421875 -7.90625 C 2.328125 -7.457031 2.28125 -6.957031 2.28125 -6.40625 L 2.28125 -4.609375 C 2.28125 -4.046875 2.328125 -3.539062 2.421875 -3.09375 C 2.515625 -2.65625 2.660156 -2.273438 2.859375 -1.953125 C 3.054688 -1.640625 3.304688 -1.394531 3.609375 -1.21875 C 3.921875 -1.050781 4.296875 -0.96875 4.734375 -0.96875 Z M 4.734375 -0.96875 "/></g></g></g></svg>