<svg xmlns="http://www.w3.org/2000/svg" xmlns:xlink="http://www.w3.org/1999/xlink" width="300" zoomAndPan="magnify" viewBox="0 0 224.87999 37.5" height="50" preserveAspectRatio="xMidYMid meet" version="1.0"><defs><g/></defs><g fill="#e0dfe0" fill-opacity="1"><g transform="translate(5.120916, 24.424342)"><g><path d="M 4.5625 0.1875 C 3.632812 0.1875 2.828125 0.0351562 2.140625 -0.265625 C 1.460938 -0.566406 0.910156 -0.984375 0.484375 -1.515625 L 1.859375 -3.03125 C 2.265625 -2.582031 2.703125 -2.253906 3.171875 -2.046875 C 3.648438 -1.835938 4.140625 -1.734375 4.640625 -1.734375 C 5.203125 -1.734375 5.628906 -1.859375 5.921875 -2.109375 C 6.222656 -2.367188 6.375 -2.734375 6.375 -3.203125 C 6.375 -3.585938 6.257812 -3.878906 6.03125 -4.078125 C 5.8125 -4.285156 5.429688 -4.429688 4.890625 -4.515625 L 3.734375 -4.703125 C 2.742188 -4.867188 2.03125 -5.234375 1.59375 -5.796875 C 1.15625 -6.359375 0.9375 -7.046875 0.9375 -7.859375 C 0.9375 -8.921875 1.28125 -9.742188 1.96875 -10.328125 C 2.664062 -10.910156 3.640625 -11.203125 4.890625 -11.203125 C 5.742188 -11.203125 6.484375 -11.070312 7.109375 -10.8125 C 7.742188 -10.550781 8.253906 -10.191406 8.640625 -9.734375 L 7.3125 -8.234375 C 7.007812 -8.566406 6.660156 -8.820312 6.265625 -9 C 5.867188 -9.1875 5.414062 -9.28125 4.90625 -9.28125 C 3.84375 -9.28125 3.3125 -8.84375 3.3125 -7.96875 C 3.3125 -7.59375 3.429688 -7.304688 3.671875 -7.109375 C 3.910156 -6.921875 4.296875 -6.78125 4.828125 -6.6875 L 5.984375 -6.484375 C 6.878906 -6.328125 7.566406 -5.988281 8.046875 -5.46875 C 8.535156 -4.957031 8.78125 -4.265625 8.78125 -3.390625 C 8.78125 -2.878906 8.6875 -2.40625 8.5 -1.96875 C 8.320312 -1.53125 8.054688 -1.148438 7.703125 -0.828125 C 7.347656 -0.503906 6.910156 -0.253906 6.390625 -0.078125 C 5.867188 0.0976562 5.257812 0.1875 4.5625 0.1875 Z M 4.5625 0.1875 "/></g></g></g><g fill="#e0dfe0" fill-opacity="1"><g transform="translate(13.960743, 24.424342)"><g><path d="M 4.734375 0.1875 C 3.265625 0.1875 2.175781 -0.3125 1.46875 -1.3125 C 0.769531 -2.3125 0.421875 -3.707031 0.421875 -5.5 C 0.421875 -7.300781 0.769531 -8.703125 1.46875 -9.703125 C 2.175781 -10.703125 3.265625 -11.203125 4.734375 -11.203125 C 6.203125 -11.203125 7.285156 -10.703125 7.984375 -9.703125 C 8.691406 -8.703125 9.046875 -7.300781 9.046875 -5.5 C 9.046875 -3.707031 8.691406 -2.3125 7.984375 -1.3125 C 7.285156 -0.3125 6.203125 0.1875 4.734375 0.1875 Z M 4.734375 -1.71875 C 5.410156 -1.71875 5.875 -1.96875 6.125 -2.46875 C 6.382812 -2.96875 6.515625 -3.664062 6.515625 -4.5625 L 6.515625 -6.46875 C 6.515625 -7.351562 6.382812 -8.046875 6.125 -8.546875 C 5.875 -9.046875 5.410156 -9.296875 4.734375 -9.296875 C 4.054688 -9.296875 3.585938 -9.046875 3.328125 -8.546875 C 3.078125 -8.046875 2.953125 -7.351562 2.953125 -6.46875 L 2.953125 -4.546875 C 2.953125 -3.660156 3.078125 -2.96875 3.328125 -2.46875 C 3.585938 -1.96875 4.054688 -1.71875 4.734375 -1.71875 Z M 4.734375 -1.71875 "/></g></g></g><g fill="#e0dfe0" fill-opacity="1"><g transform="translate(22.80057, 24.424342)"><g><path d="M 1.21875 -11.015625 L 5.078125 -11.015625 C 6.160156 -11.015625 6.988281 -10.75 7.5625 -10.21875 C 8.132812 -9.695312 8.421875 -8.984375 8.421875 -8.078125 C 8.421875 -7.453125 8.265625 -6.953125 7.953125 -6.578125 C 7.648438 -6.203125 7.207031 -5.929688 6.625 -5.765625 L 6.625 -5.671875 C 7.3125 -5.492188 7.84375 -5.195312 8.21875 -4.78125 C 8.59375 -4.363281 8.78125 -3.78125 8.78125 -3.03125 C 8.78125 -2.101562 8.484375 -1.363281 7.890625 -0.8125 C 7.304688 -0.269531 6.488281 0 5.4375 0 L 1.21875 0 Z M 4.71875 -1.65625 C 5.289062 -1.65625 5.707031 -1.75 5.96875 -1.9375 C 6.226562 -2.125 6.359375 -2.472656 6.359375 -2.984375 L 6.359375 -3.4375 C 6.359375 -3.945312 6.226562 -4.296875 5.96875 -4.484375 C 5.707031 -4.671875 5.289062 -4.765625 4.71875 -4.765625 L 3.515625 -4.765625 L 3.515625 -1.65625 Z M 4.421875 -6.34375 C 4.972656 -6.34375 5.375 -6.429688 5.625 -6.609375 C 5.882812 -6.796875 6.015625 -7.132812 6.015625 -7.625 L 6.015625 -8.09375 C 6.015625 -8.582031 5.882812 -8.914062 5.625 -9.09375 C 5.375 -9.269531 4.972656 -9.359375 4.421875 -9.359375 L 3.515625 -9.359375 L 3.515625 -6.34375 Z M 4.421875 -6.34375 "/></g></g></g><g fill="#e0dfe0" fill-opacity="1"><g transform="translate(31.640398, 24.424342)"><g><path d="M 3.53125 0 L 1.203125 0 L 1.203125 -11.015625 L 5.453125 -11.015625 C 5.992188 -11.015625 6.472656 -10.929688 6.890625 -10.765625 C 7.316406 -10.609375 7.671875 -10.375 7.953125 -10.0625 C 8.242188 -9.757812 8.460938 -9.390625 8.609375 -8.953125 C 8.765625 -8.523438 8.84375 -8.046875 8.84375 -7.515625 C 8.84375 -6.734375 8.671875 -6.0625 8.328125 -5.5 C 7.992188 -4.945312 7.515625 -4.582031 6.890625 -4.40625 L 9.0625 0 L 6.46875 0 L 4.625 -4.09375 L 3.53125 -4.09375 Z M 4.890625 -5.921875 C 5.453125 -5.921875 5.835938 -6.023438 6.046875 -6.234375 C 6.265625 -6.441406 6.375 -6.789062 6.375 -7.28125 L 6.375 -7.75 C 6.375 -8.226562 6.265625 -8.570312 6.046875 -8.78125 C 5.835938 -9 5.453125 -9.109375 4.890625 -9.109375 L 3.53125 -9.109375 L 3.53125 -5.921875 Z M 4.890625 -5.921875 "/></g></g></g><g fill="#e0dfe0" fill-opacity="1"><g transform="translate(40.480225, 24.424342)"><g><path d="M 1.265625 0 L 1.265625 -11.015625 L 8.296875 -11.015625 L 8.296875 -9.078125 L 3.625 -9.078125 L 3.625 -6.546875 L 8.140625 -6.546875 L 8.140625 -4.609375 L 3.625 -4.609375 L 3.625 -1.9375 L 8.296875 -1.9375 L 8.296875 0 Z M 1.265625 0 "/></g></g></g><g fill="#e0dfe0" fill-opacity="1"><g transform="translate(49.320051, 24.424342)"><g/></g></g><g fill="#e0dfe0" fill-opacity="1"><g transform="translate(58.155967, 24.424342)"><g><path d="M 2.578125 -9.328125 L 2.46875 -9.328125 L 2.46875 0 L 1.265625 0 L 1.265625 -11.015625 L 3.140625 -11.015625 L 6.890625 -1.78125 L 7 -1.78125 L 7 -11.015625 L 8.203125 -11.015625 L 8.203125 0 L 6.328125 0 Z M 2.578125 -9.328125 "/></g></g></g><g fill="#e0dfe0" fill-opacity="1"><g transform="translate(66.995794, 24.424342)"><g><path d="M 4.734375 0.1875 C 4.054688 0.1875 3.472656 0.0625 2.984375 -0.1875 C 2.503906 -0.445312 2.109375 -0.816406 1.796875 -1.296875 C 1.484375 -1.785156 1.253906 -2.382812 1.109375 -3.09375 C 0.960938 -3.800781 0.890625 -4.601562 0.890625 -5.5 C 0.890625 -6.394531 0.960938 -7.195312 1.109375 -7.90625 C 1.253906 -8.625 1.484375 -9.222656 1.796875 -9.703125 C 2.109375 -10.191406 2.503906 -10.5625 2.984375 -10.8125 C 3.472656 -11.070312 4.054688 -11.203125 4.734375 -11.203125 C 5.410156 -11.203125 5.988281 -11.070312 6.46875 -10.8125 C 6.957031 -10.5625 7.359375 -10.191406 7.671875 -9.703125 C 7.984375 -9.222656 8.210938 -8.625 8.359375 -7.90625 C 8.503906 -7.195312 8.578125 -6.394531 8.578125 -5.5 C 8.578125 -4.601562 8.503906 -3.800781 8.359375 -3.09375 C 8.210938 -2.382812 7.984375 -1.785156 7.671875 -1.296875 C 7.359375 -0.816406 6.957031 -0.445312 6.46875 -0.1875 C 5.988281 0.0625 5.410156 0.1875 4.734375 0.1875 Z M 4.734375 -0.96875 C 5.171875 -0.96875 5.539062 -1.050781 5.84375 -1.21875 C 6.15625 -1.394531 6.410156 -1.640625 6.609375 -1.953125 C 6.804688 -2.273438 6.953125 -2.65625 7.046875 -3.09375 C 7.140625 -3.539062 7.1875 -4.046875 7.1875 -4.609375 L 7.1875 -6.40625 C 7.1875 -6.957031 7.140625 -7.457031 7.046875 -7.90625 C 6.953125 -8.351562 6.804688 -8.734375 6.609375 -9.046875 C 6.410156 -9.367188 6.15625 -9.613281 5.84375 -9.78125 C 5.539062 -9.957031 5.171875 -10.046875 4.734375 -10.046875 C 4.296875 -10.046875 3.921875 -9.957031 3.609375 -9.78125 C 3.304688 -9.613281 3.054688 -9.367188 2.859375 -9.046875 C 2.660156 -8.734375 2.515625 -8.351562 2.421875 -7.90625 C 2.328125 -7.457031 2.28125 -6.957031 2.28125 -6.40625 L 2.28125 -4.609375 C 2.28125 -4.046875 2.328125 -3.539062 2.421875 -3.09375 C 2.515625 -2.65625 2.660156 -2.273438 2.859375 -1.953125 C 3.054688 -1.640625 3.304688 -1.394531 3.609375 -1.21875 C 3.921875 -1.050781 4.296875 -0.96875 4.734375 -0.96875 Z M 4.84375 -11.921875 L 4.03125 -12.296875 L 5.359375 -14.96875 L 6.515625 -14.421875 Z M 4.84375 -11.921875 "/></g></g></g><g fill="#e0dfe0" fill-opacity="1"><g transform="translate(75.835621, 24.424342)"><g><path d="M 4.703125 0.1875 C 3.710938 0.1875 2.898438 0.00390625 2.265625 -0.359375 C 1.640625 -0.722656 1.117188 -1.1875 0.703125 -1.75 L 1.671875 -2.546875 C 2.097656 -2.003906 2.550781 -1.601562 3.03125 -1.34375 C 3.507812 -1.082031 4.082031 -0.953125 4.75 -0.953125 C 5.550781 -0.953125 6.160156 -1.132812 6.578125 -1.5 C 7.003906 -1.863281 7.21875 -2.378906 7.21875 -3.046875 C 7.21875 -3.578125 7.0625 -3.992188 6.75 -4.296875 C 6.445312 -4.597656 5.914062 -4.8125 5.15625 -4.9375 L 3.921875 -5.140625 C 3.390625 -5.234375 2.941406 -5.375 2.578125 -5.5625 C 2.210938 -5.757812 1.921875 -5.988281 1.703125 -6.25 C 1.484375 -6.519531 1.328125 -6.816406 1.234375 -7.140625 C 1.140625 -7.460938 1.09375 -7.796875 1.09375 -8.140625 C 1.09375 -9.148438 1.421875 -9.910156 2.078125 -10.421875 C 2.742188 -10.941406 3.640625 -11.203125 4.765625 -11.203125 C 5.648438 -11.203125 6.394531 -11.054688 7 -10.765625 C 7.601562 -10.472656 8.085938 -10.054688 8.453125 -9.515625 L 7.53125 -8.71875 C 7.21875 -9.113281 6.847656 -9.4375 6.421875 -9.6875 C 5.992188 -9.9375 5.4375 -10.0625 4.75 -10.0625 C 4 -10.0625 3.425781 -9.90625 3.03125 -9.59375 C 2.632812 -9.28125 2.4375 -8.804688 2.4375 -8.171875 C 2.4375 -7.679688 2.582031 -7.28125 2.875 -6.96875 C 3.175781 -6.65625 3.71875 -6.429688 4.5 -6.296875 L 5.6875 -6.09375 C 6.21875 -6 6.664062 -5.851562 7.03125 -5.65625 C 7.40625 -5.46875 7.703125 -5.242188 7.921875 -4.984375 C 8.148438 -4.722656 8.3125 -4.425781 8.40625 -4.09375 C 8.5 -3.769531 8.546875 -3.429688 8.546875 -3.078125 C 8.546875 -2.054688 8.210938 -1.253906 7.546875 -0.671875 C 6.878906 -0.0976562 5.929688 0.1875 4.703125 0.1875 Z M 4.703125 0.1875 "/></g></g></g></svg>